<svg width="1200" height="760" viewBox="0 0 1200 760" fill="none" xmlns="http://www.w3.org/2000/svg">
  <rect width="1200" height="760" rx="30" fill="#F5F7FB"/>
  <rect x="32" y="32" width="1136" height="696" rx="24" fill="white"/>
  <rect x="64" y="64" width="260" height="56" rx="18" fill="#E0F2FE"/>
  <rect x="74" y="80" width="110" height="24" rx="12" fill="#0F172A"/>
  <rect x="200" y="80" width="90" height="24" rx="12" fill="#2563EB" opacity="0.18"/>
  <rect x="64" y="156" width="184" height="108" rx="20" fill="#EFF6FF"/>
  <rect x="270" y="156" width="184" height="108" rx="20" fill="#ECFDF5"/>
  <rect x="476" y="156" width="184" height="108" rx="20" fill="#F5F3FF"/>
  <rect x="682" y="156" width="184" height="108" rx="20" fill="#FFF7ED"/>
  <rect x="64" y="298" width="800" height="280" rx="24" fill="#F8FAFC"/>
  <rect x="892" y="298" width="230" height="280" rx="24" fill="#0F172A"/>
  <rect x="80" y="328" width="220" height="18" rx="9" fill="#0F172A" opacity="0.8"/>
  <rect x="80" y="364" width="430" height="14" rx="7" fill="#94A3B8"/>
  <rect x="80" y="392" width="390" height="14" rx="7" fill="#94A3B8"/>
  <rect x="80" y="444" width="270" height="54" rx="16" fill="#E2E8F0"/>
  <rect x="80" y="516" width="280" height="36" rx="18" fill="#2563EB"/>
  <rect x="920" y="346" width="170" height="44" rx="14" fill="#1D4ED8"/>
  <rect x="920" y="406" width="170" height="14" rx="7" fill="#E2E8F0" opacity="0.9"/>
  <rect x="920" y="436" width="150" height="14" rx="7" fill="#E2E8F0" opacity="0.7"/>
  <rect x="920" y="466" width="170" height="62" rx="18" fill="#1E293B"/>
  <circle cx="140" cy="180" r="26" fill="#60A5FA"/>
  <circle cx="346" cy="180" r="26" fill="#34D399"/>
  <circle cx="552" cy="180" r="26" fill="#A78BFA"/>
  <circle cx="758" cy="180" r="26" fill="#FDBA74"/>
  <path d="M835 524C881.807 524 919 486.807 919 440C919 393.193 881.807 356 835 356C788.193 356 751 393.193 751 440C751 486.807 788.193 524 835 524Z" fill="#2563EB" opacity="0.2"/>
  <circle cx="835" cy="440" r="40" fill="#2563EB"/>
</svg>
